<svg width="74" height="35" viewBox="0 0 74 35" fill="none" xmlns="http://www.w3.org/2000/svg">
<rect x="1" width="27" height="9" rx="4.5" fill="#45C09F"/>
<path d="M19.159 32.61C18.6223 33.2387 17.9937 33.714 17.273 34.036C16.5677 34.358 15.7933 34.519 14.95 34.519C13.846 34.519 12.834 34.266 11.914 33.76C10.994 33.2693 9.94367 32.4107 8.763 31.184C7.27567 31.0613 5.94167 30.632 4.761 29.896C3.58033 29.1447 2.66033 28.171 2.001 26.975C1.34167 25.7637 1.012 24.422 1.012 22.95C1.012 21.386 1.38767 19.9753 2.139 18.718C2.89033 17.4453 3.92533 16.4563 5.244 15.751C6.56267 15.0303 8.04233 14.67 9.683 14.67C11.3237 14.67 12.8033 15.0303 14.122 15.751C15.4407 16.4563 16.4757 17.4377 17.227 18.695C17.9783 19.9523 18.354 21.3707 18.354 22.95C18.354 24.2227 18.101 25.4033 17.595 26.492C17.089 27.5653 16.3837 28.4853 15.479 29.252C14.5743 30.0033 13.524 30.5477 12.328 30.885C12.7727 31.3603 13.2097 31.7053 13.639 31.92C14.0683 32.1347 14.5283 32.242 15.019 32.242C16.077 32.242 16.997 31.8127 17.779 30.954L19.159 32.61ZM4.025 22.95C4.025 24.0233 4.27033 24.997 4.761 25.871C5.25167 26.7297 5.92633 27.4043 6.785 27.895C7.64367 28.3703 8.60967 28.608 9.683 28.608C10.7563 28.608 11.7223 28.3703 12.581 27.895C13.4397 27.4043 14.1143 26.7297 14.605 25.871C15.0957 24.997 15.341 24.0233 15.341 22.95C15.341 21.8767 15.0957 20.9107 14.605 20.052C14.1143 19.178 13.4397 18.5033 12.581 18.028C11.7223 17.5373 10.7563 17.292 9.683 17.292C8.60967 17.292 7.64367 17.5373 6.785 18.028C5.92633 18.5033 5.25167 19.178 4.761 20.052C4.27033 20.9107 4.025 21.8767 4.025 22.95ZM28.0663 24.261L25.5133 26.883V31H22.5233V14.9H25.5133V23.157L33.4713 14.9H36.8293L30.0673 22.099L37.2433 31H33.7473L28.0663 24.261ZM44.4032 18.58C46.2125 18.58 47.5925 19.017 48.5432 19.891C49.5092 20.7497 49.9922 22.053 49.9922 23.801V31H47.2782V29.505C46.9255 30.0417 46.4195 30.4557 45.7602 30.747C45.1162 31.023 44.3342 31.161 43.4142 31.161C42.4942 31.161 41.6892 31.0077 40.9992 30.701C40.3092 30.379 39.7725 29.942 39.3892 29.39C39.0212 28.8227 38.8372 28.1863 38.8372 27.481C38.8372 26.377 39.2435 25.4953 40.0562 24.836C40.8842 24.1613 42.1799 23.824 43.9432 23.824H47.1172V23.64C47.1172 22.7813 46.8565 22.122 46.3352 21.662C45.8292 21.202 45.0702 20.972 44.0582 20.972C43.3682 20.972 42.6859 21.0793 42.0112 21.294C41.3519 21.5087 40.7922 21.8077 40.3322 22.191L39.2052 20.098C39.8492 19.6073 40.6235 19.2317 41.5282 18.971C42.4329 18.7103 43.3912 18.58 44.4032 18.58ZM44.0122 29.068C44.7329 29.068 45.3692 28.907 45.9212 28.585C46.4885 28.2477 46.8872 27.7723 47.1172 27.159V25.733H44.1502C42.4942 25.733 41.6662 26.2773 41.6662 27.366C41.6662 27.8873 41.8732 28.3013 42.2872 28.608C42.7012 28.9147 43.2762 29.068 44.0122 29.068ZM57.4189 20.512C58.2469 19.224 59.7036 18.58 61.7889 18.58V21.317C61.5436 21.271 61.3212 21.248 61.1219 21.248C60.0026 21.248 59.1286 21.5777 58.4999 22.237C57.8712 22.881 57.5569 23.8163 57.5569 25.043V31H54.6819V18.718H57.4189V20.512ZM73.06 30.333C72.7227 30.609 72.3087 30.816 71.818 30.954C71.3427 31.092 70.8367 31.161 70.3 31.161C68.9507 31.161 67.908 30.8083 67.172 30.103C66.436 29.3977 66.068 28.3703 66.068 27.021V21.11H64.044V18.81H66.068V16.004H68.943V18.81H72.232V21.11H68.943V26.952C68.943 27.55 69.0887 28.01 69.38 28.332C69.6713 28.6387 70.093 28.792 70.645 28.792C71.289 28.792 71.8257 28.6233 72.255 28.286L73.06 30.333Z" fill="#292B2E"/>
</svg>
